<mxfile host="app.diagrams.net" modified="2023-09-22T03:07:26.342Z" agent="Mozilla/5.0 (Windows NT 10.0; Win64; x64) AppleWebKit/537.36 (KHTML, like Gecko) Chrome/117.0.0.0 Safari/537.36 Edg/117.0.2045.36" version="21.8.0" etag="0sBscGlKE1oImP_xxI7y" type="github">
  <diagram name="Page-1" id="hUbpxX6OpjbfLpou1dLF">
    <mxGraphModel>
      <root>
        <mxCell id="0" />
        <mxCell id="1" parent="0" />
      </root>
    </mxGraphModel>
  </diagram>
</mxfile>
